<svg xmlns="http://www.w3.org/2000/svg" width = "90" height="90"><defs><clipPath id="a"><path data-name="Rectangle 264" transform="translate(.465)" fill="#fff" d="M0 0h90v90H0z"></path></clipPath></defs><g data-name="Group 711"><g data-name="Group 714" transform="translate(-.465)" clip-path="url(#a)"><path data-name="Path 1610" d="M62.95 59.178a6.878 6.878 0 0 0 7.009 7.15 7.151 7.151 0 0 0 0-14.3 6.876 6.876 0 0 0-7.008 7.15M82.7 9.056a16.51 16.51 0 0 1-2.619 4.107c-1.063 1.2-2.125 2.4-3.258 3.539l-1.77 1.769 4.891 17.557a2.179 2.179 0 0 1-.213 1.345l-.636.849-6.445-11.681-2.833-2.832-4.035 3.966a27.873 27.873 0 0 1-3.754 2.76l1.134 7.15a1.774 1.774 0 0 1-.355 1.345l-.566.568-3.611-7.08-.211.141c-.425.283-.566.141-.566.141s-.142-.141.141-.566.07-.141.07-.213l-7.009-3.61.566-.566a2.193 2.193 0 0 1 1.346-.425l7.081 1.2a28.19 28.19 0 0 1 2.83-3.824l3.967-3.963-2.833-2.832-11.682-6.438.849-.708a2.057 2.057 0 0 1 1.276-.213l17.63 4.956 1.77-1.769c1.132-1.134 2.336-2.266 3.54-3.258A13.716 13.716 0 0 1 81.5 7.852a1.206 1.206 0 0 1 1.134.07 1.133 1.133 0 0 1 .07 1.134M52.826 46.648a6.965 6.965 0 0 1 2.123.355v5.733a13.785 13.785 0 0 0-2.9-.424 6.018 6.018 0 0 0-6.362 5.654c-.007.12-.011.242-.011.363v12.743h-5.951V46.928h5.948v4.11h.072a7.645 7.645 0 0 1 7.081-4.39M22.52 53.939c0 4.248 12.887.779 12.887 10.053 0 5.663-5.382 7.718-10.268 7.718-3.682 0-6.867-.993-9.275-3.683l3.965-3.752a7.136 7.136 0 0 0 5.665 2.9c2.55 0 3.965-.849 3.965-2.69 0-4.956-12.887-1.062-12.887-10.125 0-5.381 4.744-7.716 9.63-7.716 3.116 0 6.515.99 8.5 3.61l-4.037 3.611a5.314 5.314 0 0 0-4.672-2.479c-1.559 0-3.47.779-3.47 2.549m34.409 5.243c0-7.008 4.461-12.53 11.825-12.53 3.327 0 6.443 1.273 8.213 4.176h.072v-3.896H82.7v36.181h-5.944V68.028h-.141a9.911 9.911 0 0 1-8.141 3.683c-6.8 0-11.542-5.522-11.542-12.532M90.037.428H0v90.037h90.037Z" fill="#fff"></path></g></g></svg>